<svg width="95" height="95" viewBox="0 0 95 95" fill="none" xmlns="http://www.w3.org/2000/svg">
<path d="M95 47.5C95 73.7335 73.7335 95 47.5 95C21.2665 95 0 73.7335 0 47.5C0 21.2665 21.2665 0 47.5 0C73.7335 0 95 21.2665 95 47.5Z" fill="#2A5E95"/>
<path d="M56.44 31.056C57.08 31.056 57.7627 31.0987 58.488 31.184C59.256 31.2267 59.9173 31.312 60.472 31.44L59.768 36.624C59.2133 36.496 58.5947 36.3893 57.912 36.304C57.272 36.2187 56.6533 36.176 56.056 36.176C54.7333 36.176 53.4747 36.4533 52.28 37.008C51.0853 37.5627 50.0187 38.352 49.08 39.376C48.1413 40.3573 47.3947 41.552 46.84 42.96C46.328 44.368 46.072 45.9467 46.072 47.696V66H40.44V31.696H45.048L45.688 37.968H45.944C46.6693 36.688 47.544 35.536 48.568 34.512C49.592 33.4453 50.7653 32.6133 52.088 32.016C53.4107 31.376 54.8613 31.056 56.44 31.056Z" fill="white"/>
</svg>
