<svg width="505" height="312" viewBox="0 0 505 312" fill="none" xmlns="http://www.w3.org/2000/svg">
<path d="M321 33H184V279H321V33Z" fill="#FF5A00"/>
<path d="M193.447 156C193.447 106.171 216.944 61.9456 253 33.3709C226.464 12.5709 192.991 0 156.479 0C69.9852 0 0 69.7709 0 156C0 242.229 69.9852 312 156.479 312C192.991 312 226.464 299.429 253 278.629C216.893 250.458 193.447 205.829 193.447 156Z" fill="#EB001B"/>
<path d="M505 156C505 242.229 435.291 312 349.139 312C312.772 312 279.431 299.429 253 278.629C289.367 250.004 312.318 205.829 312.318 156C312.318 106.171 288.914 61.9456 253 33.3709C279.38 12.5709 312.721 0 349.089 0C435.291 0 505 70.2252 505 156Z" fill="#F79E1B"/>
</svg>
